<?xml version="1.0" encoding="UTF-8" standalone="no"?>
<!DOCTYPE svg PUBLIC "-//W3C//DTD SVG 1.1//EN" "http://www.w3.org/Graphics/SVG/1.1/DTD/svg11.dtd">
<svg width="100%" height="100%" viewBox="0 0 500 500" version="1.1" xmlns="http://www.w3.org/2000/svg" xmlns:xlink="http://www.w3.org/1999/xlink" xml:space="preserve" xmlns:serif="http://www.serif.com/" style="fill-rule:evenodd;clip-rule:evenodd;stroke-linejoin:round;stroke-miterlimit:2;">
    <g id="Logo">
        <g id="C2">
            <g transform="matrix(1.03822,0,0,1.00341,-5.78126,-2.72897)">
                <path d="M121.106,27.635C121.106,19.379 114.637,12.686 106.658,12.686L106.658,12.686C98.679,12.686 92.21,19.379 92.21,27.635L92.21,476.107C92.21,484.363 98.679,491.056 106.658,491.056L106.658,491.056C114.637,491.056 121.106,484.363 121.106,476.107L121.106,27.635Z"/>
            </g>
            <g transform="matrix(1.03822,0,0,0.467379,284.265,260.49)">
                <path d="M121.106,44.78C121.106,36.268 119.584,28.105 116.874,22.086C114.165,16.067 110.49,12.686 106.658,12.686C106.658,12.686 106.658,12.686 106.658,12.686C102.826,12.686 99.152,16.067 96.442,22.086C93.733,28.105 92.21,36.268 92.21,44.78L92.21,458.962C92.21,467.474 93.733,475.637 96.442,481.656C99.152,487.675 102.826,491.056 106.658,491.056C106.658,491.056 106.658,491.056 106.658,491.056C110.49,491.056 114.165,487.675 116.874,481.656C119.584,475.637 121.106,467.474 121.106,458.962L121.106,44.78Z"/>
            </g>
            <g transform="matrix(1.03822,0,0,0.467379,220.3,4.07094)">
                <path d="M121.106,44.78C121.106,36.268 119.584,28.105 116.874,22.086C114.165,16.067 110.49,12.686 106.658,12.686C106.658,12.686 106.658,12.686 106.658,12.686C102.826,12.686 99.152,16.067 96.442,22.086C93.733,28.105 92.21,36.268 92.21,44.78L92.21,458.962C92.21,467.474 93.733,475.637 96.442,481.656C99.152,487.675 102.826,491.056 106.658,491.056C106.658,491.056 106.658,491.056 106.658,491.056C110.49,491.056 114.165,487.675 116.874,481.656C119.584,475.637 121.106,467.474 121.106,458.962L121.106,44.78Z"/>
            </g>
            <g transform="matrix(1.03822,0,0,0.467379,58.1838,260.49)">
                <path d="M121.106,44.78C121.106,36.268 119.584,28.105 116.874,22.086C114.165,16.067 110.49,12.686 106.658,12.686C106.658,12.686 106.658,12.686 106.658,12.686C102.826,12.686 99.152,16.067 96.442,22.086C93.733,28.105 92.21,36.268 92.21,44.78L92.21,458.962C92.21,467.474 93.733,475.637 96.442,481.656C99.152,487.675 102.826,491.056 106.658,491.056C106.658,491.056 106.658,491.056 106.658,491.056C110.49,491.056 114.165,487.675 116.874,481.656C119.584,475.637 121.106,467.474 121.106,458.962L121.106,44.78Z"/>
            </g>
            <g transform="matrix(1,0,0,0.965852,0,450.341)">
                <path d="M183.919,25.53C183.919,16.953 177.203,10 168.919,10L104.954,10C96.669,10 89.954,16.953 89.954,25.53L89.954,25.53C89.954,34.108 96.669,41.061 104.954,41.061L168.919,41.061C177.203,41.061 183.919,34.108 183.919,25.53L183.919,25.53Z"/>
            </g>
            <g transform="matrix(0.895135,0,0,0.947113,16.1407,-3.19772)">
                <path d="M440,234.162C440,229.962 438.235,225.934 435.092,222.964C431.949,219.993 427.687,218.325 423.243,218.325C372.572,218.325 221.346,218.325 170.676,218.325C166.232,218.325 161.969,219.993 158.827,222.964C155.684,225.934 153.919,229.962 153.919,234.162C153.919,234.162 153.919,234.162 153.919,234.162C153.919,238.363 155.684,242.391 158.827,245.361C161.969,248.331 166.232,250 170.676,250C221.346,250 372.572,250 423.243,250C427.687,250 431.949,248.331 435.092,245.361C438.235,242.391 440,238.363 440,234.162C440,234.162 440,234.162 440,234.162Z"/>
            </g>
        </g>
        <g id="C1">
            <g transform="matrix(1.03822,0,0,0.467379,284.265,4.07094)">
                <path d="M121.106,44.78C121.106,36.268 119.584,28.105 116.874,22.086C114.165,16.067 110.49,12.686 106.658,12.686C106.658,12.686 106.658,12.686 106.658,12.686C102.826,12.686 99.152,16.067 96.442,22.086C93.733,28.105 92.21,36.268 92.21,44.78L92.21,458.962C92.21,467.474 93.733,475.637 96.442,481.656C99.152,487.675 102.826,491.056 106.658,491.056C106.658,491.056 106.658,491.056 106.658,491.056C110.49,491.056 114.165,487.675 116.874,481.656C119.584,475.637 121.106,467.474 121.106,458.962L121.106,44.78Z"/>
            </g>
            <g transform="matrix(1.03822,0,0,0.467379,220.3,260.49)">
                <path d="M121.106,44.78C121.106,36.268 119.584,28.105 116.874,22.086C114.165,16.067 110.49,12.686 106.658,12.686C106.658,12.686 106.658,12.686 106.658,12.686C102.826,12.686 99.152,16.067 96.442,22.086C93.733,28.105 92.21,36.268 92.21,44.78L92.21,458.962C92.21,467.474 93.733,475.637 96.442,481.656C99.152,487.675 102.826,491.056 106.658,491.056C106.658,491.056 106.658,491.056 106.658,491.056C110.49,491.056 114.165,487.675 116.874,481.656C119.584,475.637 121.106,467.474 121.106,458.962L121.106,44.78Z"/>
            </g>
            <g transform="matrix(1,0,0,0.965852,226.081,0.341482)">
                <path d="M183.919,25.53C183.919,16.953 177.203,10 168.919,10L104.954,10C96.669,10 89.954,16.953 89.954,25.53L89.954,25.53C89.954,34.108 96.669,41.061 104.954,41.061L168.919,41.061C177.203,41.061 183.919,34.108 183.919,25.53L183.919,25.53Z"/>
            </g>
            <g transform="matrix(1,0,0,0.965852,226.081,450.341)">
                <path d="M183.919,25.53C183.919,16.953 177.203,10 168.919,10L104.954,10C96.669,10 89.954,16.953 89.954,25.53L89.954,25.53C89.954,34.108 96.669,41.061 104.954,41.061L168.919,41.061C177.203,41.061 183.919,34.108 183.919,25.53L183.919,25.53Z"/>
            </g>
            <g transform="matrix(0.895135,0,0,0.947113,16.1407,59.6412)">
                <path d="M440,234.162C440,229.962 438.235,225.934 435.092,222.964C431.949,219.993 427.687,218.325 423.243,218.325C372.572,218.325 221.342,218.325 170.674,218.325C166.23,218.325 161.968,219.993 158.826,222.963C155.684,225.933 153.919,229.96 153.919,234.16C153.919,234.162 153.919,234.163 153.919,234.164C153.919,238.364 155.684,242.392 158.826,245.362C161.968,248.332 166.23,250 170.674,250C221.342,250 372.572,250 423.243,250C427.687,250 431.949,248.331 435.092,245.361C438.235,242.391 440,238.363 440,234.162C440,234.162 440,234.162 440,234.162Z"/>
            </g>
        </g>
        <g transform="matrix(1,0,0,0.965852,1.42109e-14,0.341482)">
            <g id="C3">
                <path d="M183.919,25.53C183.919,16.953 177.203,10 168.919,10L104.954,10C96.669,10 89.954,16.953 89.954,25.53L89.954,25.53C89.954,34.108 96.669,41.061 104.954,41.061L168.919,41.061C177.203,41.061 183.919,34.108 183.919,25.53L183.919,25.53Z"/>
            </g>
        </g>
        <g id="C4" transform="matrix(1.03822,0,0,0.467379,58.1838,4.07094)">
            <path d="M121.106,44.78C121.106,36.268 119.584,28.105 116.874,22.086C114.165,16.067 110.49,12.686 106.658,12.686C106.658,12.686 106.658,12.686 106.658,12.686C102.826,12.686 99.152,16.067 96.442,22.086C93.733,28.105 92.21,36.268 92.21,44.78L92.21,458.962C92.21,467.474 93.733,475.637 96.442,481.656C99.152,487.675 102.826,491.056 106.658,491.056C106.658,491.056 106.658,491.056 106.658,491.056C110.49,491.056 114.165,487.675 116.874,481.656C119.584,475.637 121.106,467.474 121.106,458.962L121.106,44.78Z"/>
        </g>
    </g>
</svg>
